<?xml version="1.0" encoding="UTF-8"?>
<svg width="595.28pt" version="1.1" xmlns="http://www.w3.org/2000/svg" height="841.89pt" viewBox="0 0 595.28 841.89" xmlns:xlink="http://www.w3.org/1999/xlink">
 <defs/>
 <g id="Background">
  <path style="fill:#ffffff; fill-rule:evenodd;stroke:#161413; stroke-width:3; stroke-linecap:butt; stroke-linejoin:miter; stroke-dasharray:none;" d="M415 207.5 C415 322.103 322.103 415 207.5 415 C92.9009 415 0 322.103 0 207.5 C0 92.9009 92.9009 0 207.5 0 C322.103 0 415 92.9009 415 207.5 Z" transform="translate(92, 58)"/>
  <path style="fill:none;stroke:#161413; stroke-width:3; stroke-linecap:butt; stroke-linejoin:miter; stroke-dasharray:none;" id="Polyline45" d="M73.8973 87.8807 C72.7299 86.6523 72.9598 85.8477 72.7098 83.0057 C72.4598 80.1638 72.8448 79.6408 73.2098 76.7557 C73.5747 73.8707 74.1092 68.7557 75.2098 64.5057 C76.3103 60.2557 76.1782 59.9856 78.4598 58.0057 C80.7414 56.0259 82.7299 56.1925 85.2098 56.0057 C87.6897 55.819 89.8563 56.4224 91.4598 57.0057 C93.0632 57.5891 93.456 57.8624 94.9895 59.901 C96.523 61.9397 98.8218 65.0431 100.574 67.0976 C102.325 69.1522 106.408 72.5144 108.908 73.8412 C111.408 75.1681 115.603 75.6178 118.46 75.7557 C121.316 75.8937 124.799 74.7557 127.707 73.5506 C130.616 72.3455 130.431 71.3649 131.584 69.6788 C132.736 67.9927 132.96 64.5833 133.21 61.0057 C133.46 57.4282 132.83 56.6322 132.27 53.7557 C131.71 50.8793 130.776 48.8362 128.876 44.2173 C126.975 39.5984 126.264 37.8498 124.684 35.7557 C123.104 33.6617 123.19 32.8592 121.123 30.0207 C119.057 27.1822 118.707 26.4224 116.46 23.2557 C114.213 20.0891 111.96 16.4224 108.71 13.5057 C105.46 10.5891 101.695 7.91667 97.7098 6.25575 C93.7241 4.59483 89.3587 3.35197 85.9598 2.51437 C82.5609 1.67676 80.3161 1.13506 77.2098 0.755747 C74.1034 0.376437 72.092 0 69.2816 0.445402 C66.4713 0.890805 64.5345 0.859195 61.8103 1.47989 C59.0862 2.10057 53.6494 3.08908 50.2098 4.75575 C46.7701 6.42241 42.2701 9.75575 39.7098 12.5057 C37.1494 15.2557 34.2241 19.296 32.2098 22.7557 C30.1954 26.2155 29.9598 27.6868 28.8014 31.3113 C27.6429 34.9358 26.8678 37.7557 26.2172 41.6361 C25.5666 45.5164 25.0287 46.0776 24.9251 50.6703 C24.8215 55.263 24.9251 63.5763 24.9251 63.5763 C24.9251 63.5763 25.9598 76.4224 24.8348 79.4432 C23.7098 82.4641 24.1092 82.5144 21.3973 83.8182 C18.6853 85.1221 14.454 86.1925 11.5885 86.3284 C8.72294 86.4643 7.07974 86.408 4.56897 88.6063 C2.05819 90.8046 1.16739 91.3398 0.66092 93.8937 C0.154454 96.4476 0.172414 98.5884 0.0862069 100.675 C0 102.762 0.52976 105.548 1.23563 106.997 C1.9415 108.446 2.95977 111.02 4.83477 112.881 C6.70977 114.741 9.18163 114.764 11.8103 115.618 C14.4391 116.472 20.2011 115.273 21.9251 116.012 C23.6491 116.751 23.9598 117.112 25.8014 119.884 C27.6429 122.656 28.8014 151.337 28.8014 151.337 C28.8014 151.337 28.477 154.468 28.8014 159.081 C29.1257 163.693 29.6264 171.825 30.0934 175.858 C30.5604 179.892 30.0862 177.756 30.0934 182.311 C30.1007 186.867 30.0934 202.961 30.0934 202.961 C30.0934 202.961 29.8563 208.376 30.0934 211.995 C30.3305 215.614 31.3855 224.901 31.3855 224.901 L32.6776 235.226 C32.6776 235.226 33.6494 246.756 33.9697 252.004 C34.2899 257.251 33.9697 262.653 33.9697 262.653 C33.9697 262.653 33.9598 270.33 33.9697 272.978 C33.9796 275.625 34.6839 277.457 35.2618 279.431 C35.8396 281.405 36.8678 283.204 37.8459 284.593 C38.824 285.983 39.6264 286.997 41.7221 288.465 C43.8179 289.933 48.2471 290.101 50.7667 289.756 C53.2863 289.411 58.5192 285.884 58.5192 285.884 C58.5192 285.884 64.2241 281.94 66.2717 279.431 C68.3192 276.922 69.8563 273.319 71.44 270.397 C73.0236 267.475 73.1897 263.319 74.0241 260.072 C74.8586 256.825 75.6034 255.158 76.6083 252.004 C77.6131 248.849 77.7874 243.756 77.9004 239.098 C78.0134 234.44 77.9004 232.645 77.9004 232.645 L77.9004 224.901 L77.9004 208.123 C77.9004 208.123 78.2471 203.089 77.9004 199.089 C77.5536 195.089 76.6083 190.055 76.6083 190.055 C76.6083 190.055 76.1782 188.491 75.3162 184.892 C74.4543 181.294 74.0241 175.858 74.0241 175.858 L72.732 168.115 C72.732 168.115 72.1552 164.239 71.44 160.371 C70.7248 156.504 70.6609 153.089 70.4604 148.09 C70.2599 143.091 68.2471 128.606 69.2098 124.756 C70.1724 120.905 72.2701 121.48 75.7723 120.381 C79.2744 119.282 92.5 117.572 95.4598 117.256 C98.4195 116.94 99.8563 115.963 101.405 113.559 C102.954 111.156 103.042 109.598 103.305 106.422 C103.567 103.247 102.5 100.756 100.772 97.8807 C99.0445 95.0057 96.0632 93.8937 93.6528 92.9096 C91.2425 91.9255 82.5 91.8247 79.9598 91.037 C77.4195 90.2493 75.0647 89.1092 73.8973 87.8807 Z" transform="translate(237.04, 120.244)"/>
 </g>
</svg>
