<?xml version="1.0" encoding="UTF-8"?>
<svg width="595.28pt" version="1.1" xmlns="http://www.w3.org/2000/svg" height="841.89pt" viewBox="0 0 595.28 841.89" xmlns:xlink="http://www.w3.org/1999/xlink">
 <defs/>
 <g id="Background">
  <path style="fill:#ffffff; fill-rule:evenodd;stroke:#161413; stroke-width:3; stroke-linecap:butt; stroke-linejoin:miter; stroke-dasharray:none;" d="M415 207.5 C415 322.103 322.103 415 207.5 415 C92.9009 415 0 322.103 0 207.5 C0 92.9009 92.9009 0 207.5 0 C322.103 0 415 92.9009 415 207.5 Z" transform="translate(92, 58)"/>
  <path style="fill:none;stroke:#161413; stroke-width:3; stroke-linecap:butt; stroke-linejoin:miter; stroke-dasharray:none;" d="M3.71921 21.7205 C7 14.5 13.5 6 26.0304 3.5 C38.5608 1 51.866 3.5 51.866 3.5 L115.231 6 L135.788 6 C135.788 6 197.5 0 209.167 3.5 C220.834 7 222.5 9.5 228.5 17.5 C234.5 25.5 233.5 25.5 235 44 C236.5 62.5 234.5 73 235.611 101.654 C236.722 130.308 237.062 151.342 238 162 C238.938 172.658 241 178 238.5 195.5 C236 213 236.5 213 231 218 C225.5 223 219.5 224 213 225 C206.5 226 205 228 196.371 228.5 C187.742 229 148.5 228.5 121.121 228.5 C93.7412 228.5 43.5 232 29.5 229 C15.5 226 16 225.5 12 218.5 C8 211.5 6.5 197.5 6 183 C5.5 168.5 7 138.5 5.59147 119.18 C4.18293 99.8599 5 109 3 88 C1 67 0 61.5 0.5 48 C1 34.5 0.438429 28.9411 3.71921 21.7205 Z" transform="translate(172, 149.5)"/>
  <path style="fill:none;stroke:#161413; stroke-width:3; stroke-linecap:butt; stroke-linejoin:miter; stroke-dasharray:none;" id="Line1213" d="M0 7.5 C0 7.5 30 5 59.0162 5.86416 C88.0325 6.72831 88.1698 4.78101 116.5 5 C144.83 5.21899 132.5 7.5 167.084 2.86868 C202.5 0 234.5 1 234.5 1 " transform="translate(173, 218.5)"/>
  <path style="fill:none;stroke:#161413; stroke-width:3; stroke-linecap:butt; stroke-linejoin:miter; stroke-dasharray:none;" d="M108.876 55.5 C108.876 65.8858 105.876 74.5 100.151 83.8956 C94.4255 93.2911 85.5881 97.8819 77.7321 103.441 C69.8762 109 62.2976 109 53.8762 109 C37.5289 109 26.3762 101.5 13.1881 89.9654 C0 78.4308 0.876171 68.9243 0.876171 56 C0.876171 43.4735 3.37617 30.5 12.488 21.7127 C21.5998 12.9255 37.1316 0 53.8762 0 C71.3519 0 87.5643 9.34846 97.7932 23.1116 C104.698 32.402 108.876 43.704 108.876 55.5 Z" transform="translate(235.624, 223.5)"/>
  <path style="fill:none;stroke:#161413; stroke-width:3; stroke-linecap:butt; stroke-linejoin:miter; stroke-dasharray:none;" d="M0.532418 2.20014 C1.00207 1.46875 1.93257 0.607759 3.72634 0.354526 C5.52011 0.101293 7.4248 0.354526 7.4248 0.354526 L16.4957 0.607759 L19.4385 0.607759 C19.4385 0.607759 28.2728 0 29.943 0.354526 C31.6132 0.709052 31.8517 0.962284 32.7106 1.77263 C33.5695 2.58297 33.4263 2.58297 33.6411 4.4569 C33.8558 6.33082 33.5695 7.3944 33.7285 10.2968 C33.8876 13.1993 33.9363 15.3299 34.0705 16.4095 C34.2048 17.4891 34.5 18.0302 34.1421 19.8028 C33.7842 21.5754 33.8558 21.5754 33.0685 22.0819 C32.2811 22.5884 31.4222 22.6897 30.4917 22.7909 C29.5612 22.8922 29.3465 23.0948 28.1112 23.1455 C26.8759 23.1961 21.2583 23.1455 17.3389 23.1455 C13.4194 23.1455 6.22718 23.5 4.22303 23.1961 C2.21888 22.8922 2.29046 22.8416 1.71784 22.1325 C1.14523 21.4235 0.930498 20.0054 0.858921 18.5366 C0.787344 17.0679 1.00207 14.0291 0.800439 12.0721 C0.598801 10.1151 0.715768 11.0409 0.429461 8.91379 C0.143154 6.78664 0 6.22953 0.0715768 4.86207 C0.143154 3.49461 0.0627627 2.93153 0.532418 2.20014 Z" transform="translate(347.5, 175)"/>
 </g>
</svg>
